<svg width="84" height="30" viewBox="0 0 84 30" fill="none" xmlns="http://www.w3.org/2000/svg">
<path d="M69.0639 29.64C77.0423 29.64 83.534 23.0432 83.534 14.936C83.534 6.824 77.0423 0.231995 69.0639 0.231995C61.0839 0.231995 54.5937 6.824 54.5937 14.936C54.5937 23.0432 61.0839 29.64 69.0639 29.64ZM69.0639 9.69279C71.9072 9.69279 74.2227 12.0448 74.2227 14.9344C74.2227 17.824 71.9056 20.1728 69.0623 20.1728C66.2174 20.1728 63.905 17.824 63.905 14.9328C63.905 12.04 66.2189 9.6896 69.0623 9.6896L69.0639 9.69279ZM14.4702 29.64C22.4486 29.64 28.9404 23.0432 28.9404 14.936C28.9404 6.824 22.4486 0.231995 14.4702 0.231995C6.49336 0.231995 0 6.824 0 14.936C0 23.0432 6.49336 29.64 14.4702 29.64ZM14.4702 9.69279C17.3151 9.69279 19.6291 12.0448 19.6291 14.9344C19.6291 17.824 17.3151 20.1728 14.4702 20.1728C11.6269 20.1728 9.31449 17.824 9.31449 14.9328C9.31449 12.04 11.6285 9.6896 14.4702 9.6896V9.69279ZM41.7591 9.36159L37.3166 0.423995H26.9149L36.6303 19.976V29.1808H46.8894V19.976L56.6049 0.423995H46.1984L41.7607 9.36159H41.7591Z" fill="#EE2E24"/>
</svg>
